<svg id="eyedear" data-name="eyedear-logo" xmlns="http://www.w3.org/2000/svg" viewBox="0 0 574.94 431.2"><defs><style>.cls-1{fill:none;}.cls-2,.cls-4{fill:#ec2024;}.cls-2{fill-rule:evenodd;}.cls-3{fill:#fff;}</style></defs><rect class="cls-1" width="574.94" height="431.2"/><path class="cls-2" d="M57.1,349.31c-15.41-14.12-7.09-24.77-4.21-30,6.79-12.27,16.45-29.51,32.3-56.06,14.21-28.41,21.41-39.7,14.62-63.2-6-20.81-28.84-73.94,46.26-153.78,0,0-26,17.05-38.58,34.53C69.1,134.27,80,179.26,86.05,200.07c6.79,23.5-.42,34.79-14.62,63.2-15.86,26.55-25.52,43.79-32.31,56.06-2.88,5.21-11.2,15.86,4.21,30,14.26,13.13,30.49,14.74,53.18,24.75a164.49,164.49,0,0,1,20.76,10.86C113.79,367.37,71.35,362.44,57.1,349.31Z"/><path class="cls-3" d="M148,241.2a20.77,20.77,0,0,0,13.08-4.7l4.58,4A27.35,27.35,0,0,1,148,247.12a26.27,26.27,0,1,1,0-52.54c9.61,0,16.88,5.25,21.13,12.52l-37.34,25.82C136.41,238.51,141.89,241.2,148,241.2Zm-20.46-20.35c0,2.12.45,4.14,1.67,7.94l31-21.47c-2.35-4.69-6.59-6.82-12.18-6.82A20.44,20.44,0,0,0,127.58,220.85Z"/><path class="cls-3" d="M184.46,274,198.1,246l-24.37-50.3h5.92l21.58,44.38,21.46-44.38h5.59L190.94,274Z"/><path class="cls-3" d="M258.49,241.2a20.77,20.77,0,0,0,13.08-4.7l4.58,4a27.31,27.31,0,0,1-17.66,6.59,26.27,26.27,0,1,1,0-52.54c9.61,0,16.88,5.25,21.13,12.52l-37.34,25.82C246.86,238.51,252.34,241.2,258.49,241.2ZM238,220.85c0,2.12.45,4.14,1.68,7.94l31-21.47c-2.34-4.69-6.59-6.82-12.18-6.82A20.45,20.45,0,0,0,238,220.85Z"/><path class="cls-4" d="M312.75,247.12a26.27,26.27,0,1,1,0-52.54c6.82,0,13.19,2.57,20.35,8.94V167.75H339v79.37l-7.37-7.38C325.94,244.55,319.46,247.12,312.75,247.12Zm-20.34-26.27a20.35,20.35,0,1,0,20.34-20.46A20.58,20.58,0,0,0,292.41,220.85Z"/><path class="cls-3" d="M378.21,241.2a20.79,20.79,0,0,0,13.08-4.7l4.58,4a27.35,27.35,0,0,1-17.66,6.59,26.27,26.27,0,1,1,0-52.54c9.61,0,16.88,5.25,21.12,12.52L362,232.92C366.58,238.51,372.06,241.2,378.21,241.2Zm-20.46-20.35c0,2.12.45,4.14,1.68,7.94l31-21.47c-2.35-4.69-6.59-6.82-12.18-6.82A20.45,20.45,0,0,0,357.75,220.85Z"/><path class="cls-3" d="M432.57,247.12a26.27,26.27,0,1,1,0-52.54c6.82,0,13.19,2.68,20.35,9.17V195.7h5.36v51.42l-6.82-7.6C445.76,244.55,439.28,247.12,432.57,247.12Zm-20.35-26.27a20.35,20.35,0,1,0,20.35-20.35A20.43,20.43,0,0,0,412.22,220.85Z"/><path class="cls-3" d="M500.25,200.5c-11.85,0-20.12,9.17-20.12,20.35V246h-6.26V195.7h6.26v9.72c6.26-6.82,13.41-10.39,20.23-10.84Z"/><path class="cls-4" d="M171.5,152.34c19.37,0,37.08,5.81,50.75,15.41a64.49,64.49,0,0,0-101.49,0C134.43,158.15,152.14,152.34,171.5,152.34Z"/><path class="cls-4" d="M517,257.6c-4.35,4.29-8.32,9.41-8.32,14.49a43.17,43.17,0,0,1-43.17,43.17c-14.92,0-26.53-7.57-34.28-19.08a39.62,39.62,0,0,0,68.08-27.59c0-4.66,3-10.31,7-13.3a59.06,59.06,0,1,0-85.62-79.77A64.33,64.33,0,1,1,517,257.6Z"/><path class="cls-3" d="M237.74,259a20.17,20.17,0,0,1,3.34-.26,5.53,5.53,0,0,1,3.77,1.12,3.6,3.6,0,0,1,1.17,2.81,4,4,0,0,1-1,2.87,5.58,5.58,0,0,1-4.11,1.48,6,6,0,0,1-1.4-.12v5.39h-1.74Zm1.74,6.48a5.84,5.84,0,0,0,1.44.14c2.09,0,3.37-1,3.37-2.87s-1.26-2.63-3.18-2.63a7.26,7.26,0,0,0-1.63.14Z"/><path class="cls-3" d="M248.21,258.11H250v6h0a3.27,3.27,0,0,1,1.26-1.24,3.58,3.58,0,0,1,1.79-.5c1.3,0,3.38.8,3.38,4.13v5.75h-1.76v-5.55c0-1.56-.58-2.87-2.23-2.87a2.53,2.53,0,0,0-2.36,1.75,2.13,2.13,0,0,0-.12.84v5.83h-1.75Z"/><path class="cls-3" d="M268,267.37c0,3.57-2.47,5.13-4.81,5.13-2.61,0-4.62-1.92-4.62-5,0-3.23,2.11-5.13,4.78-5.13S268,264.42,268,267.37Zm-7.66.1c0,2.11,1.22,3.71,2.93,3.71s2.94-1.58,2.94-3.75c0-1.64-.82-3.71-2.89-3.71S260.36,265.63,260.36,267.47Z"/><path class="cls-3" d="M272.36,259.85v2.77h2.51V264h-2.51v5.2c0,1.2.34,1.88,1.31,1.88a3.92,3.92,0,0,0,1-.12l.08,1.32a4.29,4.29,0,0,1-1.55.24,2.44,2.44,0,0,1-1.9-.74,3.59,3.59,0,0,1-.68-2.52V264h-1.49v-1.34h1.49v-2.31Z"/><path class="cls-3" d="M285.47,267.37c0,3.57-2.47,5.13-4.81,5.13-2.61,0-4.63-1.92-4.63-5,0-3.23,2.12-5.13,4.79-5.13S285.47,264.42,285.47,267.37Zm-7.66.1c0,2.11,1.22,3.71,2.93,3.71s2.93-1.58,2.93-3.75c0-1.64-.81-3.71-2.89-3.71S277.81,265.63,277.81,267.47Z"/><path class="cls-3" d="M296,262.62c0,.7-.08,1.48-.08,2.65v5.61c0,2.21-.44,3.57-1.37,4.41a5.13,5.13,0,0,1-3.52,1.16,6.24,6.24,0,0,1-3.21-.8l.44-1.34a5.45,5.45,0,0,0,2.83.76c1.8,0,3.12-.94,3.12-3.37v-1.08h0a3.46,3.46,0,0,1-3.08,1.62c-2.39,0-4.11-2-4.11-4.71,0-3.27,2.14-5.13,4.35-5.13a3.19,3.19,0,0,1,3,1.68h0l.08-1.46Zm-1.81,3.81a2.51,2.51,0,0,0-.1-.8,2.54,2.54,0,0,0-2.46-1.85c-1.67,0-2.87,1.41-2.87,3.65,0,1.89,1,3.47,2.85,3.47a2.57,2.57,0,0,0,2.44-1.8,3,3,0,0,0,.14-.93Z"/><path class="cls-3" d="M298.73,265.63c0-1.13,0-2.11-.08-3h1.54l.06,1.9h.08A2.89,2.89,0,0,1,303,262.4a1.9,1.9,0,0,1,.5.06v1.66a2.64,2.64,0,0,0-.6-.06,2.46,2.46,0,0,0-2.35,2.25,5,5,0,0,0-.08.82v5.15h-1.74Z"/><path class="cls-3" d="M310.51,272.28l-.14-1.22h-.06a3.61,3.61,0,0,1-3,1.44,2.75,2.75,0,0,1-3-2.78c0-2.33,2.08-3.61,5.81-3.59v-.2a2,2,0,0,0-2.2-2.23,4.79,4.79,0,0,0-2.51.72l-.4-1.16a6,6,0,0,1,3.17-.86c3,0,3.67,2,3.67,4V270a13.63,13.63,0,0,0,.16,2.32Zm-.26-4.93c-1.92,0-4.09.3-4.09,2.17a1.55,1.55,0,0,0,1.65,1.68,2.41,2.41,0,0,0,2.34-1.62,1.84,1.84,0,0,0,.1-.56Z"/><path class="cls-3" d="M314.78,265.77c0-1.23,0-2.23-.08-3.15h1.58l.08,1.66h0a3.79,3.79,0,0,1,3.43-1.88c2.33,0,4.09,2,4.09,4.91,0,3.47-2.11,5.19-4.39,5.19a3.38,3.38,0,0,1-3-1.52h0v5.25h-1.74Zm1.74,2.58a3.85,3.85,0,0,0,.08.71,2.7,2.7,0,0,0,2.63,2.06c1.86,0,2.93-1.52,2.93-3.73,0-1.94-1-3.59-2.87-3.59a2.8,2.8,0,0,0-2.65,2.17,2.85,2.85,0,0,0-.12.72Z"/><path class="cls-3" d="M326.14,258.11h1.76v6h0a3.17,3.17,0,0,1,1.25-1.24,3.62,3.62,0,0,1,1.8-.5c1.29,0,3.37.8,3.37,4.13v5.75H332.6v-5.55c0-1.56-.57-2.87-2.23-2.87a2.51,2.51,0,0,0-2.35,1.75,2.13,2.13,0,0,0-.12.84v5.83h-1.76Z"/><path class="cls-3" d="M337.6,262.62l2.11,5.71c.22.63.46,1.39.62,2h0c.18-.58.38-1.31.62-2l1.92-5.67h1.85l-2.63,6.88c-1.26,3.32-2.12,5-3.31,6.05a4.77,4.77,0,0,1-2.16,1.14l-.44-1.48a4.66,4.66,0,0,0,1.54-.86,5.37,5.37,0,0,0,1.47-2,1.26,1.26,0,0,0,.14-.42,1.53,1.53,0,0,0-.12-.46l-3.57-8.9Z"/><path class="cls-4" d="M351.63,269.79a2.83,2.83,0,0,1,2.88-3,3,3,0,1,1-2.88,3Z"/><path class="cls-3" d="M364.56,270.16a6.17,6.17,0,0,0,3.12.88c1.77,0,2.81-.94,2.81-2.29s-.72-2-2.53-2.68c-2.2-.78-3.56-1.91-3.56-3.81,0-2.09,1.74-3.65,4.35-3.65a6.12,6.12,0,0,1,3,.66l-.48,1.41a5.5,5.5,0,0,0-2.55-.63c-1.84,0-2.54,1.09-2.54,2,0,1.26.82,1.88,2.67,2.6,2.28.87,3.44,2,3.44,3.95s-1.54,3.87-4.71,3.87a6.9,6.9,0,0,1-3.43-.86Z"/><path class="cls-3" d="M376.54,259.91a1.09,1.09,0,0,1-2.17,0,1.07,1.07,0,0,1,1.09-1.1A1,1,0,0,1,376.54,259.91Zm-2,12.37v-9.66h1.75v9.66Z"/><path class="cls-3" d="M379.36,265.23c0-1,0-1.81-.08-2.61h1.53l.08,1.56H381a3.33,3.33,0,0,1,3-1.78,2.86,2.86,0,0,1,2.74,1.94h0a4,4,0,0,1,1.08-1.26,3.27,3.27,0,0,1,2.13-.68c1.28,0,3.17.84,3.17,4.19v5.69h-1.71v-5.47c0-1.86-.68-3-2.1-3a2.28,2.28,0,0,0-2.07,1.59,2.9,2.9,0,0,0-.14.88v6H385.4v-5.79c0-1.54-.68-2.65-2-2.65a2.4,2.4,0,0,0-2.18,1.75,2.43,2.43,0,0,0-.14.86v5.83h-1.71Z"/><path class="cls-3" d="M396.11,265.77c0-1.23,0-2.23-.08-3.15h1.57l.08,1.66h0a3.8,3.8,0,0,1,3.43-1.88c2.34,0,4.09,2,4.09,4.91,0,3.47-2.11,5.19-4.38,5.19a3.39,3.39,0,0,1-3-1.52h0v5.25h-1.73Zm1.73,2.58a3.85,3.85,0,0,0,.08.71,2.72,2.72,0,0,0,2.64,2.06c1.85,0,2.93-1.52,2.93-3.73,0-1.94-1-3.59-2.87-3.59A2.81,2.81,0,0,0,398,266a2.85,2.85,0,0,0-.12.72Z"/><path class="cls-3" d="M407.56,258.11h1.76v14.17h-1.76Z"/><path class="cls-3" d="M413,262.62l2.12,5.71c.22.63.46,1.39.62,2h0c.18-.58.38-1.31.61-2l1.92-5.67h1.86l-2.64,6.88c-1.25,3.32-2.11,5-3.31,6.05a4.75,4.75,0,0,1-2.15,1.14l-.44-1.48a4.62,4.62,0,0,0,1.53-.86,5.38,5.38,0,0,0,1.48-2,1.26,1.26,0,0,0,.14-.42,1.53,1.53,0,0,0-.12-.46l-3.57-8.9Z"/><path class="cls-3" d="M428,258.83v8c0,3,1.34,4.29,3.14,4.29,2,0,3.27-1.32,3.27-4.29v-8h1.76v7.84c0,4.13-2.18,5.83-5.09,5.83-2.76,0-4.83-1.58-4.83-5.75v-7.92Z"/><path class="cls-3" d="M439.22,265.23c0-1,0-1.81-.08-2.61h1.56l.1,1.6h0A3.55,3.55,0,0,1,444,262.4c1.34,0,3.42.8,3.42,4.11v5.77h-1.76v-5.57c0-1.56-.58-2.85-2.24-2.85a2.49,2.49,0,0,0-2.35,1.79,2.53,2.53,0,0,0-.12.82v5.81h-1.76Z"/><path class="cls-3" d="M452.36,259.91a1.09,1.09,0,0,1-2.17,0,1.06,1.06,0,0,1,1.09-1.1A1,1,0,0,1,452.36,259.91Zm-2,12.37v-9.66h1.76v9.66Z"/><path class="cls-3" d="M461.76,270.78h0a3.44,3.44,0,0,1-3.15,1.72c-2.26,0-4.09-2-4.09-4.89,0-3.61,2.33-5.21,4.37-5.21a3.18,3.18,0,0,1,3,1.68h0l.06-1.46h1.66c-.05.82-.06,1.66-.06,2.65v11h-1.76Zm0-4.25a3,3,0,0,0-.08-.74,2.56,2.56,0,0,0-2.51-2c-1.82,0-2.92,1.53-2.92,3.71,0,1.91.92,3.59,2.86,3.59a2.62,2.62,0,0,0,2.51-1.92,2.83,2.83,0,0,0,.14-.83Z"/><path class="cls-3" d="M474.59,269.64c0,1,0,1.88.08,2.64h-1.55l-.1-1.58h0a3.64,3.64,0,0,1-3.19,1.8c-1.52,0-3.34-.84-3.34-4.23v-5.65h1.76V268c0,1.83.56,3.07,2.15,3.07a2.54,2.54,0,0,0,2.32-1.6,2.52,2.52,0,0,0,.16-.89v-5.93h1.75Z"/><path class="cls-3" d="M478.59,267.77a3.1,3.1,0,0,0,3.31,3.35,6.36,6.36,0,0,0,2.68-.5l.3,1.26a7.82,7.82,0,0,1-3.21.6c-3,0-4.75-2-4.75-4.87s1.71-5.21,4.53-5.21c3.15,0,4,2.77,4,4.55a6.64,6.64,0,0,1-.06.82Zm5.15-1.26c0-1.12-.46-2.85-2.44-2.85-1.77,0-2.55,1.63-2.69,2.85Z"/></svg>